<?xml version="1.0" encoding="utf-8"?>
<!-- Generator: Adobe Illustrator 18.1.1, SVG Export Plug-In . SVG Version: 6.00 Build 0)  -->
<!DOCTYPE svg PUBLIC "-//W3C//DTD SVG 1.1//EN" "http://www.w3.org/Graphics/SVG/1.1/DTD/svg11.dtd">
<svg version="1.1" id="Layer_1" xmlns="http://www.w3.org/2000/svg" xmlns:xlink="http://www.w3.org/1999/xlink" x="0px" y="0px"
	 viewBox="0 0 125.7 125.7" enable-background="new 0 0 125.7 125.7" xml:space="preserve">
<g id="_x36_pyBl6_1_">
	<g>
		<path fill="#FFFFFF" d="M62.9,0c34.4-0.1,62.9,28,62.8,63c-0.1,34.4-27.8,62.5-62.3,62.8C28.2,126-0.2,97.6,0,62.5
			C0.2,27.5,28.7-0.1,62.9,0z M27.9,92.8c0,2,2.1,4.1,4.6,3.3c3.9-1.2,7.8-2.5,11.7-3.7c5.9-1.9,11.9-3.8,17.8-5.7
			c0.3-0.1,0.6-0.1,0.9,0c4.6,1.4,9.1,2.9,13.7,4.3c5.3,1.7,10.7,3.4,16,5.1c1.7,0.5,3.5-0.2,4.2-1.8c0.5-1.2,0.2-2.2-0.2-3.4
			c-4.9-11.4-9.8-22.8-14.6-34.1C76.6,44.5,71.3,32.3,66.1,20c-0.2-0.5-0.4-1-0.7-1.5c-0.7-1.2-1.9-1.6-3.2-1.5
			c-1.4,0.1-2.4,0.8-2.9,2.1c-5,11.8-10.1,23.5-15.1,35.3C38.8,66.7,33.5,79,28.3,91.3C28.1,91.8,28,92.3,27.9,92.8z"/>
	</g>
</g>
</svg>
