<?xml version="1.0" encoding="utf-8"?>
<!-- Generator: Adobe Illustrator 18.1.1, SVG Export Plug-In . SVG Version: 6.00 Build 0)  -->
<!DOCTYPE svg PUBLIC "-//W3C//DTD SVG 1.1//EN" "http://www.w3.org/Graphics/SVG/1.1/DTD/svg11.dtd">
<svg version="1.1" id="Layer_1" xmlns="http://www.w3.org/2000/svg" xmlns:xlink="http://www.w3.org/1999/xlink" x="0px" y="0px"
	 viewBox="0 292.8 1920 558.1" enable-background="new 0 292.8 1920 558.1" xml:space="preserve">
<g>
	<g>
		<path fill="#FFFFFF" d="M1152.2,808.6c-4,0-6-2.2-8.2-4L850.5,389.7v408.9c0,6-4,10.2-10.2,10.2c-6.2,0-10.2-4-10.2-10.2V357
			c0-4,2.2-8.2,6-10.2c4-2.2,8.2,0,12.1,4l293.5,414.9V357c0-6,4-10.2,10.2-10.2c6.2,0,10.2,4,10.2,10.2v441.4c0,4-2.2,8.2-6,10.2
			C1154.4,808.6,1152.2,808.6,1152.2,808.6z"/>
	</g>
	<path fill="#FFFFFF" d="M1864.6,808.6c-6,0-10.2-4-10.2-10.2V357c0-6,4-10.2,10.2-10.2c6,0,10.2,4,10.2,10.2v441.4
		C1874.8,804.4,1868.8,808.6,1864.6,808.6z"/>
	<g>
		<path fill="#FFFFFF" d="M55.4,808.6c-6,0-10.2-4-10.2-10.2V357c0-6,4-10.2,10.2-10.2h259.1c6,0,10.2,4,10.2,10.2
			c0,6.4-4,10.2-10.2,10.2H65.3v431.2C65.3,804.4,61.4,808.6,55.4,808.6z"/>
		<path fill="#FFFFFF" d="M314.5,587.9H63.6c-6,0-10.2-4-10.2-10.2c0-6,4-10.2,10.2-10.2h253.1c6,0,10.2,4,10.2,10.2
			C326.6,583.7,320.4,587.9,314.5,587.9z"/>
	</g>
	<g>
		<path fill="#FFFFFF" d="M719.2,808.6c-4,0-8.2-2.2-10.2-6L530.8,383.5L350.5,802.4c-2.2,6-8.2,8.2-12.1,6c-6-2.2-8.2-8.2-6-12.1
			l188.5-441.4c4-8.2,16.3-8.2,18.3,0l188.2,441.4c2.2,6,0,10.2-6,12.1C721,808.6,721,808.6,719.2,808.6z"/>
		<path fill="#FFFFFF" d="M719.2,808.6H717l-186.3-58.7l-186.3,58.7c-6,2.2-10.2-2.2-12.1-6c-2.2-6,2.2-10.2,6-12.1l188-60.7
			c2.2,0,4,0,6,0l188,60.7c6,2.2,8.2,8.2,6,12.1C727.4,804.4,723.2,808.6,719.2,808.6z"/>
	</g>
	<path fill="#FFFFFF" d="M1312,808.6c-28.2,0-50.5-22.3-50.5-50.5c0-28.2,22.3-50.5,50.5-50.5s50.5,22.3,50.5,50.5
		C1360.8,786.3,1338.5,808.6,1312,808.6z M1312,727.6c-16.3,0-30.5,14.1-30.5,30.5c0,16.3,14.1,30.5,30.5,30.5s30.5-14.1,30.5-30.5
		C1342.5,741.7,1328.3,727.6,1312,727.6z"/>
	<g>
		<path fill="#FFFFFF" d="M1619.6,808.6c-87,0-151.6-26.3-155.8-28.2c-6-2.2-8.2-8.2-6-12.1c2.2-6,8.2-8.2,12.1-6
			c0,0,64.7,26.3,147.9,26.3c2.2,0,115.2,0,115.2-87c0-50.5-68.9-83-135.7-115.2c-70.6-34.2-145.7-70.6-145.7-131.5
			c0-85,87-107,133.5-107c87,0,151.6,26.3,155.8,28.2c6,2.2,8.2,8.2,6,12.1c-2.2,6-8.2,8.2-12.1,6c0,0-64.7-26.3-147.9-26.3
			c-2.2,0-115.2,0-115.2,87c0,48.6,68.9,83,133.5,113.4c72.8,34.2,145.7,70.6,145.7,133.5C1753.4,786.3,1666.2,808.6,1619.6,808.6z"
			/>
	</g>
</g>
</svg>
